PathFileType	4	(X/Y/Z)	Patient4_TMGait_0pt7_01_right_45.trc.trc
DataRate	CameraRate	NumFrames	NumMarkers	Units	OrigDataRate	OrigDataStartFrame	OrigNumFrames
83.333333333333	83.333333333333	5	33	mm	83.333333333333	106	       141
Frame#	Time	Sacral			L.Shoulder			Chest			R.Shoulder			Neck			R.ASIS			L.ASIS			R.Thigh.Superior			R.Thigh.Lateral			R.Thigh.Inferior			R.Patella			L.Thigh.Superior			L.Thigh.Lateral			L.Thigh.Inferior			L.Patella			L.Shank.Superior			L.Shank.Lateral			L.Shank.Inferior			R.Shank.Superior			R.Shank.Lateral			R.Shank.Inferior			R.Heel			R.Midfoot.Superior			R.Midfoot.Lateral			R.Toe			L.Heel			L.Midfoot.Lateral			L.Midfoot.Superior			L.Toe			L.Elbow			L.Wrist			R.Elbow			R.Wrist			
		X1	Y1	Z1	X2	Y2	Z2	X3	Y3	Z3	X4	Y4	Z4	X5	Y5	Z5	X6	Y6	Z6	X7	Y7	Z7	X8	Y8	Z8	X9	Y9	Z9	X10	Y10	Z10	X11	Y11	Z11	X12	Y12	Z12	X13	Y13	Z13	X14	Y14	Z14	X15	Y15	Z15	X16	Y16	Z16	X17	Y17	Z17	X18	Y18	Z18	X19	Y19	Z19	X20	Y20	Z20	X21	Y21	Z21	X22	Y22	Z22	X23	Y23	Z23	X24	Y24	Z24	X25	Y25	Z25	X26	Y26	Z26	X27	Y27	Z27	X28	Y28	Z28	X29	Y29	Z29	X30	Y30	Z30	X31	Y31	Z31	X32	Y32	Z32	X33	Y33	Z33	

106	52.850000000000	866.988521564042	1021.069739862700	433.211717497846	1094.891339479404	1434.569246481527	261.703336672071	1178.430574804839	1357.772263770768	431.854497249034	1086.320653999902	1443.226612062449	595.543418308869	1090.836050346361	1495.767779790089	414.533327679041	1079.466115443314	949.186201600399	569.303963158883	1090.930951355925	962.817058813928	294.752255069661	1172.249078683266	797.735607238788	555.586564702506	1136.829018961471	678.572323668508	636.106586797594	1238.625283486182	645.604447247477	569.019208967677	1267.377307408457	537.260781789760	598.523298483493	1110.898198540826	745.389102649933	324.710419710679	1005.239202610242	641.631856922143	264.195064766776	1074.592304258328	554.182501129093	329.339800670946	1065.137939106507	487.212659087042	340.785655510331	1036.853202241117	419.026699115907	333.753736119551	941.454012097382	308.075533786185	286.107594478322	986.692909347698	196.405283267865	361.656829110771	1201.759870111923	453.977308220221	603.104585124496	1082.615457162263	398.882575782457	653.350190679622	1091.089828741632	286.031891092361	611.519276501943	907.083259618272	200.815294578584	567.963990438979	1074.828535406503	156.338389804935	628.365758565554	962.213216315940	146.365394174392	647.434105629383	1143.050510124816	47.572629621709	660.843204479779	851.005808261104	43.272630230382	406.221732250476	928.397734397968	37.293548716306	329.381900948210	1012.118459752458	97.114500191901	357.165084408381	1140.200905880632	40.041647599555	336.190773788479	1055.563416879785	1105.392577211126	105.756888060988	1254.038757967385	953.554817794959	171.646319166968	981.084323349797	1117.918046994754	727.618306802526	1004.154421339904	859.804582078462	776.121592395885	
107	52.862000000000	865.697015128653	1020.989856176808	432.409579004778	1095.568744920845	1433.919719604836	261.490214149153	1177.756671152892	1357.319084450779	432.357558213145	1084.648351430080	1443.241655642678	595.268720695288	1090.391257379398	1495.439678137239	414.196828663494	1077.961448299081	948.971208421986	569.311396820285	1089.997976442793	963.024095799591	294.639337791427	1171.779481088306	800.006454680654	555.210050044350	1138.072281485683	680.025114781508	635.726618665806	1240.139285861662	648.409339283057	568.639908933652	1271.106431376983	541.666382651133	597.853077086231	1107.049837288048	744.455395683122	324.155668460763	999.792993077352	642.031885584025	263.465285929661	1067.906064189933	553.686236453529	328.370246457244	1057.684504289005	487.098642831162	339.690282877231	1029.277543665605	419.201747763298	332.823814369967	933.260135477757	308.555560962197	285.541669101461	978.544182845008	196.768341498175	361.013382002713	1209.442618874591	456.358410368196	603.025688320798	1094.509693435817	395.198478053415	655.506980309591	1108.260318507887	282.861401099209	613.476225505155	928.565103562901	187.081925396178	573.378000194010	1099.668256414792	153.011610920297	631.082415371763	988.095317307287	136.458382606416	652.003937843882	1174.675261555369	48.672709132397	662.726351819955	842.614968574502	43.897222101016	405.974289740632	920.005393679602	37.448683002678	329.267960642826	1003.846461092827	97.218007395521	356.830219667710	1131.755200239770	39.951460797332	336.121398410840	1061.822204786940	1104.176908527070	105.689632094340	1263.083497122811	958.146928137795	175.490692634883	971.151089235435	1122.075722452876	728.943135797958	984.458464071750	863.985095802392	780.511138251515	
108	52.874000000000	864.502970200229	1020.839203100442	431.966084030080	1096.189460421823	1433.132073644025	261.394451684933	1177.127116301563	1356.783156823867	432.932811243805	1083.085782537570	1443.195541548241	595.092471320354	1089.973372991335	1495.007625832543	413.947156218388	1076.647837204927	948.578578445996	569.437512627092	1089.003711478293	963.110564821774	294.680184762360	1171.003708763258	801.532443425327	554.691820542423	1138.720415865925	680.832896574006	635.246069884244	1240.750190848946	650.229234911164	567.925395775266	1273.760419081170	545.329448919184	596.781458529087	1103.258362651037	743.498316096096	323.746783958184	994.403794945025	642.389561618448	262.928021945628	1061.300592264067	553.176499529119	327.597201502287	1050.350371617753	486.973510871828	338.778502484690	1021.772883824013	419.357533621979	332.075663802808	925.158750697612	309.031891107739	285.108146729704	970.447939957777	197.110073263648	360.481451146661	1216.277816788093	458.284655876526	602.770431825727	1106.245226263635	391.064803299774	657.807454646347	1125.503139981079	279.552983224869	615.601898550906	951.158817755364	172.912534250862	579.219064971693	1124.928689088683	149.905038156880	634.115024481965	1014.934280193568	126.767078217348	657.083354786611	1206.644956892364	50.731188027129	665.213730478759	834.242441731203	44.519097930760	405.753968321087	911.613574655744	37.616643838699	329.175728954412	995.578119646426	97.317685425514	356.543349499446	1123.307910657752	39.858438962864	336.060848355236	1068.011681758830	1102.797122578241	106.052959069032	1272.007820357505	962.760806824596	179.650659710349	961.120583904758	1126.551016974035	730.292411560201	966.052931964640	868.820730531202	784.019440129204	
109	52.886000000000	863.431389323859	1020.581086107531	431.868980330807	1096.712709837029	1432.191037687947	261.410057164683	1176.530327407985	1356.158353089431	433.567189098696	1081.637195038918	1443.079943872188	595.011576669972	1089.564364858994	1494.455907804991	413.777331033791	1075.534931261680	948.001549867841	569.685428722627	1087.993960974304	963.061620817410	294.879326632627	1169.945619042595	802.245729395893	554.066008552489	1138.763752259639	680.968557583501	634.723638408001	1240.464423630147	651.009259552217	566.936755208970	1275.334893287573	548.188953414160	595.395511034984	1099.559954919537	742.493640992889	323.485769190955	989.121326957841	642.674068994114	262.590750253382	1054.831803172657	552.626087400505	327.031461584030	1043.187595580805	486.798730055549	338.069370194481	1014.377249316526	419.459655176481	331.523955537814	917.182090585133	309.482087958955	284.815989372210	962.410966840052	197.402720539047	360.076647366030	1222.220159136736	459.746044155720	602.398295863163	1117.700453666366	386.587767458980	660.172438635945	1142.653911067879	276.244757991459	617.808405587571	974.741158043660	158.612275850403	585.189207702088	1150.347602459771	147.209897672540	637.320162264922	1042.463770421272	117.539315469024	662.406738347900	1238.569434104635	53.923172718360	668.163548974496	825.881292260256	45.104688592808	405.573444319915	903.218699565670	37.786806632734	329.110431475666	987.305176376160	97.407004020905	356.313688891826	1114.858174663871	39.766045801275	336.010252281302	1074.085839033781	1101.242178037568	106.829844967683	1280.808588451861	967.468389826697	184.081952476629	951.151041733511	1131.274294901810	731.610926451471	948.922530181785	874.068902227110	786.725136474867	
110	52.898000000000	862.505191599930	1020.177697869946	432.096701270142	1097.102976380222	1431.087678827264	261.530801967562	1175.955281036645	1355.440339712920	434.247537160835	1080.308203209243	1442.888435357606	595.022694880333	1089.144389212407	1493.770881139208	413.682350154400	1074.629105563889	947.238445360030	570.060333743891	1087.020106220642	962.865032138653	295.237129632989	1168.637882538693	802.109700571383	553.388482067789	1138.218139537141	680.432728802643	634.236196128266	1239.321682503943	650.736436247732	565.762499501862	1275.857215222181	550.212811300730	593.813024883350	1095.979745479415	741.415609402946	323.380775631422	983.987742449988	642.857107562560	262.454587333566	1048.540460777220	552.008447414645	326.679899005813	1036.229664601360	486.537050118986	337.576225469898	1007.116191957466	419.475973532843	331.176211010161	909.350208560795	309.884826190656	284.667809784606	954.431081328330	197.620397695921	359.808373369615	1227.247602331625	460.737979281424	601.982213964262	1128.733232584154	381.863995901416	662.520028607330	1159.513402965029	273.050857901191	619.998024395526	999.079681745579	144.486305998731	590.975234910867	1175.610887104003	145.064191775087	640.528930777354	1070.333857607785	108.961469721520	667.675252965700	1270.015116799557	58.311529575361	671.370250805238	817.522949387653	45.621213661933	405.442403507912	894.816754606624	37.947128151792	329.075257097593	979.017878536624	97.479160522829	356.147953124685	1106.404973054566	39.678692031081	335.970701154140	1079.998700886973	1099.507690663914	108.005166930556	1289.466609257834	972.348718293586	188.738138918013	941.401796127136	1136.165317452046	732.847194017543	933.024148451234	879.524734731138	788.727416908337	
